<svg width="172" height="23" viewBox="0 0 172 23" fill="none" xmlns="http://www.w3.org/2000/svg">
<path d="M93.7611 5.81908C92.1914 8.57471 90.5869 11.2955 89.0172 14.0162C88.9126 14.1906 88.8079 14.3301 88.7033 14.5394L87.8661 13.1093C90.1683 9.1677 92.8542 4.52847 95.1563 0.621761C95.261 0.447355 95.3307 0.272948 95.4703 0.0636597C89.4707 0.0636597 83.5409 0.0636597 77.5761 0.0636597C77.6808 0.272948 77.7505 0.412473 77.8203 0.58688L79.7388 3.86573H80.2271C82.8432 3.86573 85.4942 3.86573 88.1103 3.86573C88.2847 3.86573 88.494 3.86573 88.8079 3.86573C87.7266 5.71444 86.7151 7.49339 85.6337 9.30722L83.2967 5.26098C80.1574 5.26098 76.4948 5.26098 73.3555 5.26098C73.1811 5.26098 72.9718 5.26098 72.6927 5.26098C76.0065 10.9815 79.2504 16.5625 82.5642 22.2482C83.6106 20.4344 84.6222 18.7252 85.6337 16.9462C86.6802 18.7252 87.6568 20.4344 88.7033 22.2133C92.017 16.5277 95.261 10.9118 98.5398 5.26098H94.075L93.7611 5.81908ZM82.5293 14.5394C81.448 12.6907 80.4364 10.9466 79.3551 9.09793C79.9132 9.09793 80.5411 9.09793 81.0294 9.09793L83.3664 13.1093L82.5293 14.5394Z" fill="#ADADAD"/>
<path d="M114.969 17.9228L111.516 7.10958L107.993 17.9228H106.493L102.202 5.08646H103.772L107.295 16.2136L110.783 5.08646L112.248 5.05157L115.771 16.1787L119.259 5.05157H120.794L116.504 17.8879H114.969V17.9228Z" fill="#ADADAD"/>
<path d="M131.468 5.92376C132.479 6.51674 133.317 7.28413 133.91 8.26081C134.503 9.23749 134.816 10.3188 134.816 11.5048C134.816 12.6907 134.503 13.7721 133.91 14.7836C133.317 15.7952 132.479 16.5626 131.468 17.1207C130.456 17.7137 129.305 17.9927 128.119 17.9927C126.898 17.9927 125.747 17.7137 124.736 17.1207C123.724 16.5277 122.887 15.7603 122.294 14.7836C121.701 13.8069 121.387 12.6907 121.387 11.5048C121.387 10.3188 121.701 9.23749 122.294 8.22593C122.887 7.24925 123.689 6.44698 124.736 5.88888C125.747 5.33078 126.898 5.01685 128.119 5.01685C129.34 5.05173 130.456 5.33078 131.468 5.92376ZM125.503 7.14461C124.701 7.59807 124.073 8.22593 123.585 8.99332C123.096 9.76071 122.852 10.5979 122.852 11.5397C122.852 12.4815 123.096 13.3186 123.585 14.086C124.073 14.8534 124.701 15.4813 125.503 15.9347C126.305 16.3882 127.177 16.5975 128.119 16.5975C129.061 16.5975 129.933 16.3882 130.735 15.9347C131.538 15.4813 132.165 14.8883 132.619 14.086C133.107 13.3186 133.317 12.4466 133.317 11.5397C133.317 10.6327 133.072 9.76071 132.619 8.99332C132.165 8.22593 131.503 7.63295 130.735 7.17949C129.933 6.72603 129.061 6.48186 128.154 6.48186C127.177 6.44698 126.305 6.69115 125.503 7.14461Z" fill="#ADADAD"/>
<path d="M143.223 13.8418C142.874 13.8767 142.56 13.8766 142.351 13.8766H138.932V17.9229H137.467V5.08655H142.351C143.955 5.08655 145.176 5.47024 146.083 6.20275C146.955 6.97014 147.409 8.01658 147.409 9.37696C147.409 10.4234 147.164 11.2954 146.676 12.0279C146.188 12.7604 145.455 13.2488 144.548 13.5627L147.548 17.9229H145.874L143.223 13.8418ZM145.072 11.6791C145.699 11.1559 146.013 10.4234 146.013 9.41184C146.013 8.43516 145.699 7.70265 145.072 7.21431C144.444 6.72597 143.537 6.4818 142.386 6.4818H138.967V12.4465H142.386C143.537 12.4465 144.444 12.2023 145.072 11.6791Z" fill="#ADADAD"/>
<path d="M157.838 16.5276V17.9229H150.722V5.08655H152.187V16.5276H157.838Z" fill="#ADADAD"/>
<path d="M168.756 5.9237C169.768 6.4818 170.535 7.24919 171.128 8.22587C171.721 9.20255 172 10.2839 172 11.5047C172 12.6907 171.721 13.8069 171.128 14.7836C170.535 15.7602 169.733 16.5276 168.721 17.0857C167.71 17.6438 166.593 17.9229 165.338 17.9229H160.21V5.08655H165.407C166.628 5.08655 167.744 5.3656 168.756 5.9237ZM161.675 16.5276H165.407C166.349 16.5276 167.221 16.3183 167.989 15.8649C168.756 15.4463 169.384 14.8184 169.837 14.0859C170.291 13.3185 170.5 12.4814 170.5 11.5396C170.5 10.5978 170.256 9.76065 169.802 8.99326C169.349 8.22587 168.721 7.63289 167.954 7.17943C167.186 6.72597 166.314 6.51668 165.373 6.51668H161.675V16.5276Z" fill="#ADADAD"/>
<path d="M0 17.9229V15.9696L6.69722 7.59804H0.209288V5.12146H10.6039V7.1097L3.90671 15.4463H10.7086V17.9229H0Z" fill="#ADADAD"/>
<path d="M22.359 17.9229L21.173 15.1673H15.7664L14.5804 17.9229H11.5457L17.0919 5.12146H19.8475L25.3936 17.9229H22.359ZM18.4871 8.92353L16.8826 12.6558H20.0917L18.4871 8.92353Z" fill="#ADADAD"/>
<path d="M32.4745 17.9229H26.8586V5.12146H31.8467C32.7187 5.12146 33.4512 5.2261 34.0791 5.43539C34.707 5.64468 35.1953 5.92373 35.5092 6.27254C36.0673 6.93529 36.3813 7.6678 36.3813 8.50495C36.3813 9.51651 36.0673 10.249 35.4046 10.7374C35.1953 10.9118 35.0209 11.0164 34.9511 11.0513C34.8814 11.0862 34.7069 11.1559 34.4977 11.2606C35.2999 11.435 35.9278 11.7838 36.3813 12.3419C36.8347 12.9 37.0789 13.5627 37.0789 14.365C37.0789 15.2719 36.7649 16.0393 36.172 16.737C35.4743 17.5392 34.2535 17.9229 32.4745 17.9229ZM29.7189 10.2839H31.0793C31.8816 10.2839 32.4745 10.2141 32.8582 10.0397C33.2419 9.86532 33.4512 9.48163 33.4512 8.92353C33.4512 8.36543 33.2768 7.98173 32.928 7.80732C32.5792 7.63292 31.9862 7.52827 31.1142 7.52827H29.7538V10.2839H29.7189ZM29.7189 15.5161H31.6723C32.4745 15.5161 33.1024 15.4115 33.521 15.2022C33.9396 14.9929 34.1488 14.6092 34.1488 14.0162C34.1488 13.4232 33.9396 13.0395 33.4861 12.8302C33.0675 12.6558 32.3699 12.5512 31.3932 12.5512H29.7189V15.5161Z" fill="#ADADAD"/>
<path d="M45.1016 17.9229H39.4857V5.12146H44.4738C45.3458 5.12146 46.0783 5.2261 46.7062 5.43539C47.334 5.64468 47.8224 5.92373 48.1363 6.27254C48.6944 6.93529 49.0083 7.6678 49.0083 8.50495C49.0083 9.51651 48.6944 10.249 48.0316 10.7374C47.8224 10.9118 47.648 11.0164 47.5782 11.0513C47.5084 11.0862 47.334 11.1559 47.1247 11.2606C47.927 11.435 48.5549 11.7838 49.0083 12.3419C49.4618 12.9 49.706 13.5627 49.706 14.365C49.706 15.2719 49.392 16.0393 48.799 16.737C48.1014 17.5392 46.8806 17.9229 45.1016 17.9229ZM42.3809 10.2839H43.7412C44.5435 10.2839 45.1365 10.2141 45.5202 10.0397C45.9039 9.86532 46.1132 9.48163 46.1132 8.92353C46.1132 8.36543 45.9388 7.98173 45.59 7.80732C45.2411 7.63292 44.6482 7.52827 43.7761 7.52827H42.4158V10.2839H42.3809ZM42.3809 15.5161H44.3342C45.1365 15.5161 45.7644 15.4115 46.1829 15.2022C46.6015 14.9929 46.8108 14.6092 46.8108 14.0162C46.8108 13.4232 46.6015 13.0395 46.1481 12.8302C45.7295 12.6558 45.0319 12.5512 44.0552 12.5512H42.3809V15.5161Z" fill="#ADADAD"/>
<path d="M52.1476 5.12146H55.0079V17.9229H52.1476V5.12146Z" fill="#ADADAD"/>
<path d="M65.3677 5.12146H68.8209L64.8095 11.2955L69.1348 17.9229H65.6467L62.926 13.7023L60.2052 17.9229H56.752L61.0772 11.3652L57.0659 5.12146H60.4843L62.926 8.92353L65.3677 5.12146Z" fill="#ADADAD"/>
</svg>
