<svg width="204" height="27" viewBox="0 0 204 27" fill="none" xmlns="http://www.w3.org/2000/svg">
<path d="M111.205 6.8262C109.343 10.0945 107.44 13.3214 105.579 16.5484C105.455 16.7552 105.33 16.9207 105.206 17.1689L104.213 15.4727C106.944 10.7978 110.129 5.29548 112.86 0.661935C112.984 0.45508 113.067 0.248226 113.232 0C106.116 0 99.0834 0 92.009 0C92.1331 0.248226 92.2158 0.413709 92.2986 0.620564L94.574 4.50943H95.1532C98.256 4.50943 101.4 4.50943 104.503 4.50943C104.71 4.50943 104.958 4.50943 105.33 4.50943C104.048 6.70209 102.848 8.81201 101.566 10.9633L98.7938 6.16427C95.0704 6.16427 90.7265 6.16427 87.0031 6.16427C86.7962 6.16427 86.548 6.16427 86.217 6.16427C90.1473 12.9491 93.9948 19.5684 97.925 26.3119C99.1661 24.1606 100.366 22.1334 101.566 20.0235C102.807 22.1334 103.965 24.1606 105.206 26.2705C109.137 19.5271 112.984 12.8664 116.873 6.16427H111.577L111.205 6.8262ZM97.8836 17.1689C96.6011 14.9763 95.4014 12.9077 94.1189 10.7151C94.7808 10.7151 95.5255 10.7151 96.1047 10.7151L98.8765 15.4727L97.8836 17.1689Z" fill="white"/>
<path d="M136.359 21.1815L132.263 8.35653L128.084 21.1815H126.305L121.217 5.95702H123.078L127.257 19.1543L131.394 5.95702L133.132 5.91565L137.31 19.113L141.447 5.91565H143.267L138.179 21.1401H136.359V21.1815Z" fill="white"/>
<path d="M155.927 6.95031C157.127 7.65361 158.12 8.56377 158.823 9.72216C159.526 10.8805 159.899 12.163 159.899 13.5697C159.899 14.9763 159.526 16.2588 158.823 17.4585C158.12 18.6583 157.127 19.5684 155.927 20.2304C154.727 20.9337 153.362 21.2646 151.955 21.2646C150.507 21.2646 149.142 20.9337 147.942 20.2304C146.743 19.5271 145.75 18.6169 145.046 17.4585C144.343 16.3001 143.971 14.9763 143.971 13.5697C143.971 12.163 144.343 10.8805 145.046 9.68079C145.75 8.5224 146.701 7.57087 147.942 6.90894C149.142 6.247 150.507 5.87466 151.955 5.87466C153.403 5.91604 154.727 6.247 155.927 6.95031ZM148.853 8.39829C147.901 8.93611 147.156 9.68079 146.577 10.5909C145.998 11.5011 145.708 12.494 145.708 13.611C145.708 14.728 145.998 15.7209 146.577 16.6311C147.156 17.5413 147.901 18.2859 148.853 18.8238C149.804 19.3616 150.838 19.6098 151.955 19.6098C153.072 19.6098 154.107 19.3616 155.058 18.8238C156.01 18.2859 156.754 17.5826 157.292 16.6311C157.871 15.7209 158.12 14.6867 158.12 13.611C158.12 12.5354 157.83 11.5011 157.292 10.5909C156.754 9.68079 155.968 8.97748 155.058 8.43966C154.107 7.90184 153.072 7.61224 151.997 7.61224C150.838 7.57087 149.804 7.86047 148.853 8.39829Z" fill="white"/>
<path d="M169.869 16.3415C169.455 16.3829 169.083 16.3829 168.835 16.3829H164.78V21.1819H163.043V5.9574H168.835C170.738 5.9574 172.186 6.41248 173.261 7.28127C174.296 8.19143 174.833 9.43256 174.833 11.046C174.833 12.2871 174.544 13.3214 173.965 14.1902C173.385 15.059 172.517 15.6382 171.441 16.0105L174.999 21.1819H173.013L169.869 16.3415ZM172.062 13.7765C172.806 13.1559 173.179 12.2871 173.179 11.0874C173.179 9.92901 172.806 9.06022 172.062 8.48102C171.317 7.90183 170.241 7.61223 168.876 7.61223H164.822V14.6867H168.876C170.241 14.6867 171.317 14.3971 172.062 13.7765Z" fill="white"/>
<path d="M187.203 19.5271V21.1819H178.764V5.9574H180.501V19.5271H187.203Z" fill="white"/>
<path d="M200.152 6.9503C201.352 7.61223 202.262 8.52239 202.966 9.68078C203.669 10.8392 204 12.1217 204 13.5696C204 14.9763 203.669 16.3001 202.966 17.4585C202.262 18.6169 201.311 19.5271 200.111 20.189C198.911 20.8509 197.587 21.1819 196.098 21.1819H190.017V5.9574H196.181C197.629 5.9574 198.953 6.28836 200.152 6.9503ZM191.754 19.5271H196.181C197.298 19.5271 198.332 19.2788 199.242 18.741C200.152 18.2446 200.897 17.4999 201.435 16.6311C201.973 15.7209 202.221 14.728 202.221 13.611C202.221 12.494 201.931 11.5011 201.394 10.5909C200.856 9.68078 200.111 8.97747 199.201 8.43965C198.291 7.90183 197.257 7.65361 196.139 7.65361H191.754V19.5271Z" fill="white"/>
<path d="M0 21.1819V18.8651L7.94322 8.93611H0.248225V5.99878H12.5768V8.35692L4.63354 18.2446H12.7009V21.1819H0Z" fill="white"/>
<path d="M26.5188 21.1819L25.1122 17.9136H18.6997L17.2931 21.1819H13.6938L20.2718 5.99878H23.5401L30.118 21.1819H26.5188ZM21.9266 10.5082L20.0235 14.9349H23.8297L21.9266 10.5082Z" fill="white"/>
<path d="M38.5163 21.1819H31.8556V5.99878H37.7716C38.8059 5.99878 39.6747 6.12289 40.4194 6.37112C41.1641 6.61934 41.7432 6.95031 42.1156 7.36402C42.7775 8.15007 43.1499 9.01886 43.1499 10.0118C43.1499 11.2115 42.7775 12.0803 41.9915 12.6595C41.7432 12.8664 41.5364 12.9905 41.4536 13.0318C41.3709 13.0732 41.164 13.1559 40.9158 13.2801C41.8674 13.4869 42.612 13.9006 43.1499 14.5626C43.6877 15.2245 43.9773 16.0105 43.9773 16.9621C43.9773 18.0377 43.6049 18.9479 42.9016 19.7753C42.0742 20.7268 40.6262 21.1819 38.5163 21.1819ZM35.248 12.1217H36.8615C37.813 12.1217 38.5163 12.0389 38.9714 11.8321C39.4265 11.6252 39.6747 11.1701 39.6747 10.5082C39.6747 9.84627 39.4678 9.3912 39.0541 9.18434C38.6404 8.97749 37.9371 8.85337 36.9028 8.85337H35.2894V12.1217H35.248ZM35.248 18.3273H37.5648C38.5163 18.3273 39.261 18.2032 39.7574 17.955C40.2539 17.7067 40.5021 17.2517 40.5021 16.5484C40.5021 15.8451 40.2539 15.39 39.7161 15.1418C39.2196 14.9349 38.3922 14.8108 37.2338 14.8108H35.248V18.3273Z" fill="white"/>
<path d="M53.4926 21.1819H46.8319V5.99878H52.7479C53.7822 5.99878 54.651 6.12289 55.3957 6.37112C56.1404 6.61934 56.7196 6.95031 57.0919 7.36402C57.7538 8.15007 58.1262 9.01886 58.1262 10.0118C58.1262 11.2115 57.7538 12.0803 56.9678 12.6595C56.7196 12.8664 56.5127 12.9905 56.43 13.0318C56.3472 13.0732 56.1404 13.1559 55.8921 13.2801C56.8437 13.4869 57.5883 13.9006 58.1262 14.5626C58.664 15.2245 58.9536 16.0105 58.9536 16.9621C58.9536 18.0377 58.5813 18.9479 57.8779 19.7753C57.0505 20.7268 55.6025 21.1819 53.4926 21.1819ZM50.2657 12.1217H51.8792C52.8307 12.1217 53.534 12.0389 53.9891 11.8321C54.4442 11.6252 54.6924 11.1701 54.6924 10.5082C54.6924 9.84627 54.4855 9.3912 54.0718 9.18434C53.6581 8.97749 52.9548 8.85337 51.9205 8.85337H50.3071V12.1217H50.2657ZM50.2657 18.3273H52.5825C53.534 18.3273 54.2787 18.2032 54.7751 17.955C55.2716 17.7067 55.5198 17.2517 55.5198 16.5484C55.5198 15.8451 55.2716 15.39 54.7338 15.1418C54.2373 14.9349 53.4099 14.8108 52.2515 14.8108H50.2657V18.3273Z" fill="white"/>
<path d="M61.8495 5.99878H65.242V21.1819H61.8495V5.99878Z" fill="white"/>
<path d="M77.5291 5.99878H81.6248L76.8672 13.3214L81.9972 21.1819H77.8601L74.6331 16.176L71.4062 21.1819H67.3105L72.4405 13.4042L67.6828 5.99878H71.7372L74.6331 10.5082L77.5291 5.99878Z" fill="white"/>
</svg>
